TITLE ""
FILE "DISC2Track15.mp3" MP3
  TRACK 01 AUDIO
    TITLE "DISC2Track15_01"
    INDEX 01 00:00:00
  TRACK 02 AUDIO
    TITLE "DISC2Track15_02"
    INDEX 01 00:01:23
  TRACK 03 AUDIO
    TITLE "DISC2Track15_03"
    INDEX 01 00:01:39
  TRACK 04 AUDIO
    TITLE "DISC2Track15_04"
    INDEX 01 00:05:33
  TRACK 05 AUDIO
    TITLE "DISC2Track15_05"
    INDEX 01 00:09:35
  TRACK 06 AUDIO
    TITLE "DISC2Track15_06"
    INDEX 01 00:12:74
  TRACK 07 AUDIO
    TITLE "DISC2Track15_07"
    INDEX 01 00:13:17
  TRACK 08 AUDIO
    TITLE "DISC2Track15_08"
    INDEX 01 00:16:64
  TRACK 09 AUDIO
    TITLE "DISC2Track15_09"
    INDEX 01 00:20:29
  TRACK 10 AUDIO
    TITLE "DISC2Track15_10"
    INDEX 01 00:23:33
  TRACK 11 AUDIO
    TITLE "DISC2Track15_11"
    INDEX 01 00:23:47
  TRACK 12 AUDIO
    TITLE "DISC2Track15_12"
    INDEX 01 00:28:14
  TRACK 13 AUDIO
    TITLE "DISC2Track15_13"
    INDEX 01 00:32:63
  TRACK 14 AUDIO
    TITLE "DISC2Track15_14"
    INDEX 01 00:37:00
  TRACK 15 AUDIO
    TITLE "DISC2Track15_15"
    INDEX 01 00:37:17
  TRACK 16 AUDIO
    TITLE "DISC2Track15_16"
    INDEX 01 00:42:01
  TRACK 17 AUDIO
    TITLE "DISC2Track15_17"
    INDEX 01 00:46:10
  TRACK 18 AUDIO
    TITLE "DISC2Track15_18"
    INDEX 01 00:49:62
  TRACK 19 AUDIO
    TITLE "DISC2Track15_19"
    INDEX 01 00:50:02
  TRACK 20 AUDIO
    TITLE "DISC2Track15_20"
    INDEX 01 00:53:05
  TRACK 21 AUDIO
    TITLE "DISC2Track15_21"
    INDEX 01 00:56:44
  TRACK 22 AUDIO
    TITLE "DISC2Track15_22"
    INDEX 01 00:59:58
  TRACK 23 AUDIO
    TITLE "DISC2Track15_23"
    INDEX 01 00:59:68
  TRACK 24 AUDIO
    TITLE "DISC2Track15_24"
    INDEX 01 01:03:19
  TRACK 25 AUDIO
    TITLE "DISC2Track15_25"
    INDEX 01 01:06:13
  TRACK 26 AUDIO
    TITLE "DISC2Track15_26"
    INDEX 01 01:08:43
  TRACK 27 AUDIO
    TITLE "DISC2Track15_27"
    INDEX 01 01:08:59
  TRACK 28 AUDIO
    TITLE "DISC2Track15_28"
    INDEX 01 01:11:67
  TRACK 29 AUDIO
    TITLE "DISC2Track15_29"
    INDEX 01 01:15:08
  TRACK 30 AUDIO
    TITLE "DISC2Track15_30"
    INDEX 01 01:17:64
  TRACK 31 AUDIO
    TITLE "DISC2Track15_31"
    INDEX 01 01:17:72
  TRACK 32 AUDIO
    TITLE "DISC2Track15_32"
    INDEX 01 01:21:24
  TRACK 33 AUDIO
    TITLE "DISC2Track15_33"
    INDEX 01 01:24:68
  TRACK 34 AUDIO
    TITLE "DISC2Track15_34"
    INDEX 01 01:28:13
  TRACK 35 AUDIO
    TITLE "DISC2Track15_35"
    INDEX 01 01:28:34
  TRACK 36 AUDIO
    TITLE "DISC2Track15_36"
    INDEX 01 01:31:72
  TRACK 37 AUDIO
    TITLE "DISC2Track15_37"
    INDEX 01 01:34:49
  TRACK 38 AUDIO
    TITLE "DISC2Track15_38"
    INDEX 01 01:36:63
  TRACK 39 AUDIO
    TITLE "DISC2Track15_39"
    INDEX 01 01:37:06
  TRACK 40 AUDIO
    TITLE "DISC2Track15_40"
    INDEX 01 01:39:15
  TRACK 41 AUDIO
    TITLE "DISC2Track15_41"
    INDEX 01 01:41:33
  TRACK 42 AUDIO
    TITLE "DISC2Track15_42"
    INDEX 01 01:43:26
  TRACK 43 AUDIO
    TITLE "DISC2Track15_43"
    INDEX 01 01:43:42
  TRACK 44 AUDIO
    TITLE "DISC2Track15_44"
    INDEX 01 01:48:29
  TRACK 45 AUDIO
    TITLE "DISC2Track15_45"
    INDEX 01 01:52:05
  TRACK 46 AUDIO
    TITLE "DISC2Track15_46"
    INDEX 01 01:55:35
